<svg aria-hidden="true" style="position: absolute; width: 0; height: 0; overflow: hidden;" version="1.1" xmlns="http://www.w3.org/2000/svg" xmlns:xlink="http://www.w3.org/1999/xlink">
<defs>
<symbol id="creators-verify" viewBox="0 0 33 32">
<path fill="#1d9bf0" style="fill: var(--color1, #1d9bf0)" d="M11.705 31.273l-2.764-4.655-5.236-1.164 0.509-5.382-3.564-4.073 3.564-4.073-0.509-5.382 5.236-1.164 2.764-4.655 4.945 2.109 4.945-2.109 2.764 4.655 5.236 1.164-0.509 5.382 3.564 4.073-3.564 4.073 0.509 5.382-5.236 1.164-2.764 4.655-4.945-2.109-4.945 2.109zM15.123 21.164l8.218-8.218-2.036-2.109-6.182 6.182-3.127-3.055-2.036 2.036 5.164 5.164z"></path>
</symbol>
<symbol id="creators-image" viewBox="0 0 32 32">
<path d="M12.155 11.743c0 0.743-0.295 1.456-0.821 1.981s-1.238 0.821-1.981 0.821c-0.743 0-1.456-0.295-1.981-0.821s-0.821-1.238-0.821-1.981c0-0.743 0.295-1.456 0.821-1.981s1.238-0.821 1.981-0.821c0.743 0 1.456 0.295 1.981 0.821s0.821 1.238 0.821 1.981z"></path>
<path d="M4.683 3.337c-0.991 0-1.941 0.394-2.642 1.094s-1.094 1.651-1.094 2.642v18.68c0 0.991 0.394 1.941 1.094 2.642s1.651 1.094 2.642 1.094h22.416c0.991 0 1.941-0.394 2.642-1.094s1.094-1.651 1.094-2.642v-18.68c0-0.991-0.394-1.941-1.094-2.642s-1.651-1.094-2.642-1.094h-22.416zM27.099 5.205c0.495 0 0.97 0.197 1.321 0.547s0.547 0.825 0.547 1.321v12.142l-7.055-3.637c-0.175-0.088-0.374-0.118-0.567-0.087s-0.372 0.122-0.511 0.261l-6.93 6.93-4.969-3.31c-0.179-0.119-0.395-0.173-0.609-0.152s-0.415 0.116-0.568 0.268l-4.943 4.397v-16.812c0-0.495 0.197-0.971 0.547-1.321s0.825-0.547 1.321-0.547h22.416z"></path>
</symbol>
<symbol id="creators-dogecoin" viewBox="0 0 32 32">
<path d="M16 32c-8.837 0-16-7.163-16-16s7.163-16 16-16c8.837 0 16 7.163 16 16s-7.163 16-16 16zM10.482 16.896v7.104h6.549c1.21 0 2.257-0.21 3.142-0.627 0.885-0.419 1.607-0.99 2.168-1.715 0.56-0.724 0.977-1.572 1.25-2.543s0.409-2.010 0.409-3.115c0.007-1.052-0.131-2.1-0.41-3.115-0.272-0.97-0.689-1.819-1.25-2.543-0.56-0.725-1.282-1.296-2.167-1.715-0.885-0.417-1.933-0.627-3.143-0.627h-6.549v6.61h-1.481v2.286h1.482zM13.248 14.611v-4.325h2.721c1.077 0 1.958 0.145 2.644 0.437s1.224 0.694 1.615 1.21c0.4 0.537 0.672 1.157 0.796 1.815 0.14 0.695 0.21 1.445 0.21 2.252 0.005 0.756-0.065 1.51-0.21 2.252-0.14 0.695-0.405 1.3-0.796 1.815-0.391 0.516-0.93 0.919-1.615 1.21-0.686 0.292-1.567 0.437-2.644 0.437h-2.721v-4.818h4.314v-2.285h-4.314z"></path>
</symbol>
<symbol id="creators-Vector" viewBox="0 0 35 32">
<path d="M34.709 0h-34.709v31.978h34.709v-31.978z"></path>
</symbol>
</defs>
</svg>
