<svg aria-hidden="true" style="position: absolute; width: 0; height: 0; overflow: hidden;" version="1.1" xmlns="http://www.w3.org/2000/svg" xmlns:xlink="http://www.w3.org/1999/xlink">
<defs>
<symbol id="creators-cr-img" viewBox="0 0 36 32">
<path d="M14.686 9.6c0 0.795-0.316 1.558-0.878 2.12s-1.325 0.878-2.12 0.878c-0.795 0-1.558-0.316-2.12-0.878s-0.878-1.325-0.878-2.12c0-0.795 0.316-1.558 0.878-2.12s1.325-0.878 2.12-0.878c0.795 0 1.558 0.316 2.12 0.878s0.878 1.325 0.878 2.12z"></path>
<path d="M6.691 0.606c-1.060 0-2.077 0.421-2.827 1.171s-1.171 1.766-1.171 2.827v19.988c0 1.060 0.421 2.077 1.171 2.827s1.766 1.171 2.827 1.171h23.985c1.060 0 2.077-0.421 2.827-1.171s1.171-1.766 1.171-2.827v-19.988c0-1.060-0.421-2.077-1.171-2.827s-1.766-1.171-2.827-1.171h-23.985zM30.676 2.605c0.53 0 1.038 0.211 1.413 0.585s0.585 0.883 0.585 1.413v12.992l-7.549-3.892c-0.187-0.094-0.4-0.126-0.607-0.093s-0.398 0.131-0.547 0.279l-7.415 7.415-5.317-3.542c-0.192-0.128-0.422-0.185-0.652-0.163s-0.444 0.124-0.607 0.287l-5.289 4.705v-17.989c0-0.53 0.211-1.038 0.585-1.413s0.883-0.585 1.413-0.585h23.985z"></path>
</symbol>
<symbol id="creators-coin" viewBox="0 0 31 32">
<path d="M24.3 23.396c-0.095 0.171-0.144 0.363-0.144 0.559 0 0.63 0.503 1.14 1.122 1.14s1.121-0.511 1.121-1.14c0-0.63-0.502-1.14-1.121-1.14-0.275-0-0.54 0.102-0.743 0.286l-1.84-1.639 1.437-4.637c0.101 0.002 0.202-0.015 0.296-0.053s0.18-0.093 0.252-0.164 0.129-0.156 0.168-0.249c0.039-0.093 0.058-0.194 0.057-0.295 0.001-0.103-0.020-0.205-0.060-0.3s-0.1-0.181-0.175-0.252-0.163-0.126-0.26-0.162c-0.097-0.036-0.2-0.051-0.303-0.045l-1.225-4.020c0.105-0.070 0.191-0.165 0.25-0.276s0.090-0.236 0.089-0.362c0.002-0.2-0.076-0.392-0.216-0.535s-0.331-0.224-0.531-0.226c-0.192 0-0.377 0.075-0.515 0.209l-3.408-2.506c0.060-0.112 0.091-0.238 0.090-0.365 0.002-0.2-0.076-0.392-0.216-0.535s-0.331-0.224-0.531-0.226c-0.175 0.001-0.345 0.063-0.479 0.176s-0.225 0.269-0.256 0.442h-4.138c-0.031-0.173-0.122-0.329-0.256-0.442s-0.303-0.175-0.479-0.177c-0.2 0.002-0.391 0.083-0.531 0.225s-0.218 0.335-0.217 0.535c0 0.134 0.035 0.266 0.102 0.382l-3.43 2.477c-0.137-0.127-0.316-0.198-0.503-0.198-0.2 0.002-0.391 0.083-0.531 0.225s-0.218 0.335-0.217 0.535c0 0.29 0.159 0.541 0.394 0.67l-1.231 3.994c-0.106-0.013-0.214-0.003-0.317 0.029s-0.196 0.086-0.276 0.157c-0.080 0.071-0.144 0.159-0.187 0.257s-0.066 0.204-0.065 0.311c-0.001 0.105 0.020 0.21 0.062 0.306s0.103 0.183 0.181 0.255 0.169 0.126 0.268 0.16c0.1 0.034 0.205 0.047 0.31 0.038l1.251 3.994c-0.119 0.066-0.217 0.163-0.286 0.281s-0.104 0.251-0.104 0.387c0 0.42 0.335 0.76 0.748 0.76 0.183-0 0.36-0.069 0.495-0.192l3.404 2.535c-0.045 0.1-0.068 0.208-0.067 0.317 0 0.42 0.334 0.761 0.747 0.761 0.365 0 0.669-0.266 0.734-0.618h4.138c0.031 0.173 0.122 0.329 0.256 0.442s0.304 0.175 0.479 0.176c0.413 0 0.747-0.341 0.747-0.76 0-0.11-0.023-0.219-0.069-0.32l3.832-2.875 1.894 1.685zM17.96 24.148c-0.118-0.010-0.236 0.008-0.346 0.053l-1.965-2.779c0.094-0.107 0.157-0.238 0.181-0.379l3.312-0.482c0.043 0.146 0.129 0.276 0.246 0.372l-1.427 3.215zM18.337 24.292c-0.008-0.006-0.016-0.012-0.024-0.017l1.414-3.183c0.135 0.024 0.274 0.011 0.402-0.039s0.239-0.135 0.321-0.244l1.601 0.697-3.714 2.787zM17.315 24.427c-0.057 0.072-0.1 0.153-0.129 0.24h-4.188c-0.028-0.087-0.072-0.168-0.129-0.24l1.978-2.796c0.158 0.056 0.331 0.056 0.489 0l1.979 2.796zM23.773 16.718l-1.177 3.798-0.255-3.731c0.149-0.052 0.278-0.15 0.369-0.279s0.14-0.283 0.139-0.441c0.001-0.159-0.048-0.314-0.141-0.444s-0.223-0.227-0.373-0.278l0.259-3.72 1.158 3.803c-0.106 0.070-0.192 0.165-0.252 0.276s-0.091 0.236-0.091 0.363c0 0.277 0.145 0.52 0.364 0.653zM21.61 15.492c-0.081 0.072-0.146 0.16-0.19 0.259s-0.067 0.206-0.067 0.314c-0 0.218 0.091 0.415 0.236 0.554l-1.555 2.985c-0.097-0.024-0.199-0.028-0.297-0.012l-1.377-2.931c0.089-0.072 0.16-0.163 0.209-0.266s0.074-0.216 0.074-0.33c0-0.112-0.024-0.223-0.072-0.325s-0.117-0.192-0.203-0.264l1.336-2.944c0.128 0.027 0.26 0.020 0.384-0.021l1.521 2.981zM21.969 16.814l0.299 4.372-1.67-0.728c0.019-0.123 0.008-0.249-0.033-0.366s-0.109-0.224-0.2-0.308l1.553-2.981c0.017 0.004 0.034 0.008 0.052 0.012zM21.963 15.319c-0.006 0.001-0.013 0.002-0.019 0.003l-1.539-3.014c0.082-0.089 0.141-0.195 0.174-0.311s0.037-0.238 0.014-0.356l1.284-0.537c0.090 0.123 0.216 0.216 0.361 0.266l-0.275 3.949zM18.019 16.816l1.376 2.93c-0.136 0.109-0.23 0.262-0.267 0.432l-3.329 0.484c-0.031-0.089-0.078-0.172-0.139-0.244l2.038-3.619c0.105 0.029 0.214 0.036 0.322 0.017zM18.029 15.318c-0.117-0.021-0.237-0.015-0.35 0.020l-2.053-3.682c0.067-0.070 0.121-0.151 0.157-0.241l3.336 0.485c0.026 0.18 0.115 0.344 0.251 0.464l-1.341 2.954zM17.374 16.61l-2.022 3.59c-0.144-0.055-0.302-0.062-0.451-0.022l-2.083-3.576c0.141-0.143 0.219-0.336 0.219-0.537s-0.077-0.385-0.204-0.521l2.119-3.674c0.117 0.022 0.238 0.016 0.352-0.018l2.054 3.684c-0.136 0.143-0.211 0.332-0.211 0.529 0 0.213 0.086 0.406 0.227 0.544zM6.452 16.692c0.1-0.071 0.182-0.164 0.238-0.273s0.086-0.23 0.085-0.352c0-0.118-0.027-0.235-0.079-0.341s-0.129-0.198-0.223-0.27l1.174-3.816 0.291 3.681c-0.171 0.036-0.324 0.13-0.434 0.266s-0.169 0.306-0.168 0.48c0 0.365 0.252 0.67 0.589 0.743l-0.281 3.69-1.192-3.807zM10.185 19.597l-1.584-2.982c0.073-0.072 0.131-0.157 0.171-0.251s0.060-0.196 0.059-0.298c0-0.105-0.021-0.209-0.063-0.306s-0.103-0.183-0.18-0.255l1.612-2.966c0.093 0.016 0.188 0.014 0.28-0.006l1.336 2.943c-0.086 0.072-0.156 0.162-0.204 0.264s-0.072 0.213-0.072 0.326c0 0.246 0.115 0.465 0.293 0.604l-1.315 2.938c-0.109-0.029-0.223-0.033-0.334-0.011zM10.496 21.085l1.381 3.186c-0.010 0.007-0.021 0.014-0.031 0.022l-3.432-2.556c0.039-0.112 0.052-0.232 0.037-0.35l1.295-0.564c0.087 0.11 0.204 0.193 0.337 0.239s0.276 0.054 0.412 0.022v0.001zM9.59 20.477l-1.277 0.557c-0.081-0.111-0.19-0.199-0.317-0.252l0.301-3.936 1.548 2.915c-0.102 0.087-0.179 0.199-0.224 0.324s-0.056 0.261-0.032 0.393zM11.059 20.19c-0.030-0.15-0.105-0.288-0.214-0.395l1.334-2.977c0.106 0.016 0.214 0.008 0.317-0.022l2.078 3.568c-0.086 0.084-0.151 0.186-0.189 0.3l-3.326-0.474zM11.040 20.571l3.316 0.473c0.024 0.144 0.088 0.274 0.18 0.377l-1.966 2.779c-0.107-0.044-0.223-0.063-0.339-0.054l-1.404-3.239c0.1-0.091 0.173-0.208 0.213-0.337zM9.597 11.622c-0.030 0.138-0.021 0.282 0.025 0.416s0.128 0.253 0.236 0.343l-1.551 2.857-0.307-3.889c0.129-0.056 0.24-0.146 0.32-0.261l1.278 0.534zM10.509 11.051c-0.133-0.034-0.273-0.030-0.404 0.011s-0.248 0.118-0.338 0.222l-1.315-0.55c0.012-0.111 0-0.223-0.035-0.329l3.411-2.463-1.32 3.11zM11.068 11.889l3.332-0.475c0.047 0.115 0.12 0.215 0.212 0.294l-2.095 3.635c-0.117-0.038-0.242-0.047-0.363-0.024l-1.34-2.954c0.139-0.123 0.229-0.291 0.252-0.475h0.001zM10.837 11.234l1.38-3.251c0.128 0.012 0.257-0.010 0.374-0.062l1.91 2.734c-0.085 0.111-0.138 0.243-0.154 0.382l-3.326 0.474c-0.040-0.105-0.103-0.2-0.184-0.277h-0.001zM19.788 11.031l-1.412-3.103 3.387 2.49c-0.034 0.108-0.043 0.221-0.028 0.333l-1.306 0.545c-0.077-0.093-0.176-0.166-0.288-0.213s-0.233-0.065-0.354-0.053zM19.158 11.521l-3.322-0.482c-0.015-0.14-0.068-0.273-0.154-0.384l1.91-2.734c0.123 0.056 0.259 0.076 0.394 0.060l1.45 3.18c-0.128 0.089-0.225 0.215-0.278 0.361v-0.001zM17.299 7.685l-1.914 2.739c-0.092-0.040-0.192-0.061-0.293-0.061s-0.2 0.021-0.293 0.061l-1.914-2.739c0.050-0.067 0.088-0.141 0.114-0.221h4.185c0.026 0.079 0.064 0.154 0.114 0.221zM15.36 31.426c-8.484 0-15.36-6.877-15.36-15.36s6.876-15.36 15.36-15.36c8.484 0 15.36 6.876 15.36 15.36s-6.876 15.36-15.36 15.36z"></path>
</symbol>
<symbol id="creators-verify" viewBox="0 0 33 32">
<path fill="#1d9bf0" style="fill: var(--color1, #1d9bf0)" d="M11.705 31.273l-2.764-4.655-5.236-1.164 0.509-5.382-3.564-4.073 3.564-4.073-0.509-5.382 5.236-1.164 2.764-4.655 4.945 2.109 4.945-2.109 2.764 4.655 5.236 1.164-0.509 5.382 3.564 4.073-3.564 4.073 0.509 5.382-5.236 1.164-2.764 4.655-4.945-2.109-4.945 2.109zM15.123 21.164l8.218-8.218-2.036-2.109-6.182 6.182-3.127-3.055-2.036 2.036 5.164 5.164z"></path>
</symbol>
<symbol id="creators-dogecoin" viewBox="0 0 32 32">
<path d="M16 32c-8.837 0-16-7.163-16-16s7.163-16 16-16c8.837 0 16 7.163 16 16s-7.163 16-16 16zM10.482 16.896v7.104h6.549c1.21 0 2.257-0.21 3.142-0.627 0.885-0.419 1.607-0.99 2.168-1.715 0.56-0.724 0.977-1.572 1.25-2.543s0.409-2.010 0.409-3.115c0.007-1.052-0.131-2.1-0.41-3.115-0.272-0.97-0.689-1.819-1.25-2.543-0.56-0.725-1.282-1.296-2.167-1.715-0.885-0.417-1.933-0.627-3.143-0.627h-6.549v6.61h-1.481v2.286h1.482zM13.248 14.611v-4.325h2.721c1.077 0 1.958 0.145 2.644 0.437s1.224 0.694 1.615 1.21c0.4 0.537 0.672 1.157 0.796 1.815 0.14 0.695 0.21 1.445 0.21 2.252 0.005 0.756-0.065 1.51-0.21 2.252-0.14 0.695-0.405 1.3-0.796 1.815-0.391 0.516-0.93 0.919-1.615 1.21-0.686 0.292-1.567 0.437-2.644 0.437h-2.721v-4.818h4.314v-2.285h-4.314z"></path>
</symbol>
</defs>
</svg>
