<svg aria-hidden="true" style="position: absolute; width: 0; height: 0; overflow: hidden;" version="1.1" xmlns="http://www.w3.org/2000/svg" xmlns:xlink="http://www.w3.org/1999/xlink">
<defs>
<symbol id="icon-Vector" viewBox="0 0 44 32">
<path d="M40 1h-36c-0.796 0-1.559 0.316-2.121 0.879s-0.879 1.326-0.879 2.121v24c0 0.796 0.316 1.559 0.879 2.121s1.326 0.879 2.121 0.879h36c0.796 0 1.559-0.316 2.121-0.879s0.879-1.326 0.879-2.121v-24c0-0.796-0.316-1.559-0.879-2.121s-1.326-0.879-2.121-0.879zM40 4v4.5h-36v-4.5h36zM4 28v-16.5h36v16.5h-36z"></path>
</symbol>
<symbol id="icon-Vector-1" viewBox="0 0 32 32">
<path stroke-linejoin="round" stroke-linecap="round" stroke-miterlimit="4" stroke-width="3.5556" d="M8.718 25.89c0.095 0.425 0.317 0.811 0.637 1.105s0.723 0.485 1.154 0.545c0.431 0.060 0.87-0.014 1.258-0.211s0.706-0.508 0.913-0.891l3.716-5.499 8.724 8.724c0.176 0.176 0.385 0.316 0.615 0.411s0.477 0.144 0.726 0.144 0.496-0.049 0.726-0.144c0.23-0.095 0.439-0.235 0.615-0.411l1.861-1.861c0.176-0.176 0.316-0.385 0.411-0.615s0.144-0.477 0.144-0.726-0.049-0.496-0.144-0.726c-0.095-0.23-0.235-0.439-0.411-0.615l-8.724-8.724 5.534-3.716c0.383-0.206 0.694-0.525 0.891-0.913s0.27-0.827 0.211-1.258-0.25-0.834-0.545-1.153c-0.295-0.32-0.681-0.542-1.106-0.636l-24.146-6.94 6.94 24.112z"></path>
</symbol>
<symbol id="icon-Vector-2" viewBox="0 0 32 32">
<path d="M4.575 32v-4.569h18.281v-4.575h4.575v-9.144h4.569v-13.713h-13.713v4.569h-9.144v4.575h-4.569v18.287h-4.575v4.569h4.575zM9.144 18.287h4.575v4.569h-4.575v-4.569zM13.719 13.719h4.569v4.569h-4.575v-4.575l0.006 0.006zM18.287 13.719v-4.575h4.575v4.569h-4.575v0.006zM22.856 4.569h4.575v4.575h-4.575v-4.575z"></path>
</symbol>
<symbol id="icon-Icon" viewBox="0 0 32 32">
<path d="M3.6 22.5c-1-2-1.6-4.2-1.6-6.5 0-7.7 6.3-14 14-14v2c-6.6 0-12 5.4-12 12 0 2 0.5 3.8 1.4 5.5l-1.8 1zM28 16c0 6.6-5.4 12-12 12-2.9 0-5.6-1-7.7-2.8l5.7-5.7-1.4-1.5-6.5 6.5c-0.4 0.4-0.4 1 0 1.4 2.6 2.6 6.2 4.1 9.9 4.1 7.7 0 14-6.3 14-14h-2z"></path>
<path d="M18 25c-0.1 0-0.3 0-0.4-0.1-0.3-0.1-0.6-0.4-0.6-0.8l-0.7-5 2-0.3 0.4 3.3 2.2-1.7v-5.4c0-0.3 0.1-0.5 0.3-0.7l3.2-3.2c0.9-0.9 1.5-2.2 1.5-3.5v-1.6h-1.5c-1.3 0-2.6 0.5-3.5 1.5l-3.2 3.2c-0.2 0.2-0.4 0.3-0.7 0.3h-5.5l-1.7 2.2 3.3 0.4-0.3 2-5-0.7c-0.4 0-0.7-0.3-0.8-0.6s-0.1-0.7 0.1-1l3-4c0.3-0.2 0.6-0.3 0.9-0.3h5.6l3-3c1.3-1.3 3.1-2 4.9-2h1.5c1.1 0 2 0.9 2 2v1.5c0 1.9-0.7 3.6-2 4.9l-3 3v5.6c0 0.3-0.1 0.6-0.4 0.8l-4 3c-0.2 0.1-0.4 0.2-0.6 0.2z"></path>
</symbol>
<symbol id="icon-Icon-1" viewBox="0 0 32 32">
<path d="M25.333 5.333c0.707 0 1.385 0.281 1.886 0.781s0.781 1.178 0.781 1.886v3.024c0.405 0.234 0.742 0.571 0.976 0.976s0.357 0.865 0.357 1.333v5.333c0 0.468-0.123 0.928-0.357 1.333s-0.571 0.742-0.976 0.976v3.024c0 0.707-0.281 1.385-0.781 1.886s-1.178 0.781-1.886 0.781h-18.667c-0.707 0-1.386-0.281-1.886-0.781s-0.781-1.178-0.781-1.886v-16c0-0.707 0.281-1.386 0.781-1.886s1.178-0.781 1.886-0.781h18.667zM25.333 8h-18.667v16h18.667v-2.667h-5.333c-1.391 0-2.728-0.544-3.724-1.515s-1.573-2.294-1.608-3.685c-0.035-1.391 0.475-2.74 1.422-3.761s2.254-1.63 3.643-1.7l0.267-0.007h5.333v-2.667zM26.667 13.333h-6.667c-0.707 0-1.385 0.281-1.886 0.781s-0.781 1.178-0.781 1.886c0 0.707 0.281 1.385 0.781 1.886s1.178 0.781 1.886 0.781h6.667v-5.333zM21.333 14.667c0.354 0 0.693 0.141 0.943 0.391s0.391 0.589 0.391 0.943c0 0.354-0.141 0.693-0.391 0.943s-0.589 0.391-0.943 0.391c-0.354 0-0.693-0.141-0.943-0.391s-0.391-0.589-0.391-0.943c0-0.354 0.141-0.693 0.391-0.943s0.589-0.391 0.943-0.391z"></path>
</symbol>
</defs>
</svg>
